<svg width="32" height="32" viewBox="0 0 32 32" fill="none" xmlns="http://www.w3.org/2000/svg">
<path d="M26.667 16.0003C26.667 14.5996 26.3905 13.2124 25.8545 11.9183C25.3184 10.6243 24.5337 9.44778 23.5433 8.45736C22.5529 7.46693 21.3764 6.68221 20.0824 6.14616C18.7882 5.61011 17.4011 5.33366 16.0003 5.33366C14.5996 5.33366 13.2124 5.61011 11.9183 6.14616C10.6243 6.68221 9.44778 7.46693 8.45736 8.45736C7.46693 9.44778 6.68221 10.6243 6.14616 11.9183C5.61011 13.2124 5.33366 14.5996 5.33366 16.0003C5.33366 17.4011 5.61011 18.7882 6.14616 20.0824C6.68221 21.3764 7.46693 22.5529 8.45736 23.5433C9.44778 24.5337 10.6243 25.3184 11.9183 25.8545C13.2124 26.3905 14.5996 26.667 16.0003 26.667C17.4011 26.667 18.7882 26.3905 20.0824 25.8545C21.3764 25.3184 22.5529 24.5337 23.5433 23.5433C24.5337 22.5529 25.3184 21.3764 25.8545 20.0824C26.3905 18.7882 26.667 17.4011 26.667 16.0003ZM19.0576 12.391C19.5783 11.8703 20.4223 11.8703 20.943 12.391C21.4637 12.9116 21.4637 13.7557 20.943 14.2764L15.6097 19.6097C15.089 20.1304 14.245 20.1304 13.7243 19.6097L11.0576 16.943C10.5369 16.4223 10.5369 15.5783 11.0576 15.0576C11.5783 14.5369 12.4223 14.5369 12.943 15.0576L14.667 16.7816L19.0576 12.391ZM29.3337 16.0003C29.3337 17.7513 28.9894 19.4855 28.3193 21.1032C27.6493 22.7208 26.6668 24.1906 25.4287 25.4287C24.1906 26.6668 22.7208 27.6493 21.1032 28.3193C19.4855 28.9894 17.7513 29.3337 16.0003 29.3337C14.2494 29.3337 12.5151 28.9894 10.8975 28.3193C9.27984 27.6493 7.81002 26.6668 6.57194 25.4287C5.33386 24.1906 4.35138 22.7208 3.68132 21.1032C3.01125 19.4855 2.66699 17.7513 2.66699 16.0003C2.66699 14.2494 3.01125 12.5151 3.68132 10.8975C4.35138 9.27984 5.33386 7.81002 6.57194 6.57194C7.81002 5.33386 9.27984 4.35138 10.8975 3.68132C12.5151 3.01125 14.2494 2.66699 16.0003 2.66699C17.7513 2.66699 19.4855 3.01125 21.1032 3.68132C22.7208 4.35138 24.1906 5.33386 25.4287 6.57194C26.6668 7.81002 27.6493 9.27984 28.3193 10.8975C28.9894 12.5151 29.3337 14.2494 29.3337 16.0003Z" fill="#C8C8C8"/>
</svg>
