<svg width="32" height="32" viewBox="0 0 32 32" fill="none" xmlns="http://www.w3.org/2000/svg">
<path d="M22.667 4.45352C24.678 5.61466 26.3509 7.28088 27.5201 9.28725C28.6892 11.2936 29.3141 13.5705 29.3329 15.8926C29.3517 18.2147 28.7636 20.5015 27.627 22.5264C26.4904 24.5514 24.8446 26.2445 22.8526 27.4379C20.8606 28.6314 18.5915 29.2839 16.2698 29.3309C13.9481 29.3779 11.6544 28.8177 9.61573 27.7058C7.57707 26.5939 5.86415 24.9689 4.64655 22.9915C3.42894 21.0142 2.74887 18.7531 2.67366 16.4322L2.66699 16.0002L2.67366 15.5682C2.74833 13.2655 3.41839 11.0215 4.61851 9.05484C5.81863 7.08821 7.50786 5.46612 9.52151 4.34669C11.5352 3.22727 13.8045 2.64871 16.1083 2.66743C18.4121 2.68615 20.6718 3.30151 22.667 4.45352ZM20.943 12.3908C20.7134 12.1613 20.4079 12.0234 20.0839 12.003C19.7599 11.9826 19.4395 12.0812 19.183 12.2802L19.0577 12.3908L14.667 16.7802L12.943 15.0575L12.8177 14.9468C12.5611 14.748 12.2408 14.6495 11.9169 14.67C11.5929 14.6904 11.2875 14.8283 11.058 15.0579C10.8285 15.2874 10.6906 15.5928 10.6701 15.9167C10.6497 16.2407 10.7481 16.561 10.947 16.8175L11.0577 16.9428L13.7243 19.6095L13.8497 19.7202C14.0835 19.9016 14.371 20.0001 14.667 20.0001C14.9629 20.0001 15.2505 19.9016 15.4843 19.7202L15.6097 19.6095L20.943 14.2762L21.0537 14.1508C21.2527 13.8943 21.3512 13.574 21.3308 13.2499C21.3105 12.9259 21.1726 12.6204 20.943 12.3908Z" fill="#1F1F1F"/>
</svg>
