<svg width="24" height="24" viewBox="0 0 24 24" fill="none" xmlns="http://www.w3.org/2000/svg">
<path d="M2 18V9C2 8.20435 2.3163 7.44152 2.87891 6.87891C3.44152 6.3163 4.20435 6 5 6H6V5C6 4.20435 6.3163 3.44152 6.87891 2.87891C7.44152 2.3163 8.20435 2 9 2H12C12.2652 2 12.5195 2.10543 12.707 2.29297L14.4141 4H19C19.7957 4 20.5585 4.3163 21.1211 4.87891C21.6837 5.44152 22 6.20435 22 7V14C22 14.7957 21.6837 15.5585 21.1211 16.1211C20.5585 16.6837 19.7957 17 19 17H18V18C18 18.7956 17.6837 19.5585 17.1211 20.1211C16.5585 20.6837 15.7956 21 15 21H5C4.20435 21 3.44151 20.6837 2.87891 20.1211C2.3163 19.5585 2 18.7956 2 18ZM4 18C4 18.2652 4.10543 18.5195 4.29297 18.707C4.48051 18.8946 4.73478 19 5 19H15C15.2652 19 15.5195 18.8946 15.707 18.707C15.8946 18.5195 16 18.2652 16 18V17H9C8.20435 17 7.44151 16.6837 6.87891 16.1211C6.3163 15.5585 6 14.7956 6 14V8H5C4.73478 8 4.4805 8.10543 4.29297 8.29297C4.10543 8.4805 4 8.73478 4 9V18ZM8 14C8 14.2652 8.10543 14.5195 8.29297 14.707C8.48051 14.8946 8.73478 15 9 15H19C19.2652 15 19.5195 14.8946 19.707 14.707C19.8946 14.5195 20 14.2652 20 14V7C20 6.73478 19.8946 6.48051 19.707 6.29297C19.5195 6.10543 19.2652 6 19 6H14C13.7348 6 13.4805 5.89457 13.293 5.70703L11.5859 4H9C8.73478 4 8.4805 4.10543 8.29297 4.29297C8.10543 4.4805 8 4.73478 8 5V14Z" fill="#949494"/>
</svg>
