<svg width="12" height="12" viewBox="0 0 12 12" fill="none" xmlns="http://www.w3.org/2000/svg">
<path d="M3.35354 2.6467L6.00004 5.2927L8.64654 2.6467C8.74084 2.55562 8.86714 2.50523 8.99824 2.50637C9.12934 2.50751 9.25475 2.56009 9.34745 2.65279C9.44015 2.7455 9.49274 2.8709 9.49388 3.002C9.49502 3.1331 9.44462 3.2594 9.35354 3.3537L6.70754 6.0002L9.35354 8.6467C9.44462 8.741 9.49502 8.86731 9.49388 8.9984C9.49274 9.1295 9.44015 9.25491 9.34745 9.34761C9.25475 9.44032 9.12934 9.4929 8.99824 9.49404C8.86714 9.49518 8.74084 9.44478 8.64654 9.3537L6.00004 6.7077L3.35354 9.3537C3.30742 9.40146 3.25224 9.43955 3.19124 9.46575C3.13024 9.49196 3.06463 9.50575 2.99824 9.50633C2.93185 9.50691 2.86601 9.49426 2.80456 9.46911C2.74312 9.44397 2.68729 9.40685 2.64034 9.3599C2.5934 9.31295 2.55627 9.25713 2.53113 9.19568C2.50599 9.13423 2.49334 9.06839 2.49392 9.002C2.49449 8.93561 2.50829 8.87 2.53449 8.809C2.56069 8.748 2.59879 8.69283 2.64654 8.6467L5.29254 6.0002L2.64654 3.3537C2.55546 3.2594 2.50506 3.1331 2.5062 3.002C2.50734 2.8709 2.55993 2.7455 2.65263 2.65279C2.74534 2.56009 2.87074 2.50751 3.00184 2.50637C3.13294 2.50523 3.25924 2.55562 3.35354 2.6467Z" fill="#616161"/>
</svg>
