<svg width="24" height="24" viewBox="0 0 24 24" fill="none" xmlns="http://www.w3.org/2000/svg">
<path fill-rule="evenodd" clip-rule="evenodd" d="M13.9999 11.0003C14.5522 11.0003 14.9999 11.448 14.9999 12.0003V16.0003C14.9998 16.5524 14.5521 17.0002 13.9999 17.0003H9.99995C9.44774 17.0003 9.00007 16.5524 8.99995 16.0003V12.0003C8.99995 11.448 9.44766 11.0003 9.99995 11.0003H13.9999ZM10.9999 15.0003H12.9999V13.0003H10.9999V15.0003Z" fill="#949494"/>
<path fill-rule="evenodd" clip-rule="evenodd" d="M11.3691 2.22486C11.7619 1.90451 12.3409 1.92711 12.707 2.29322L21.707 11.2932C21.9929 11.5792 22.0785 12.0094 21.9238 12.3831C21.7689 12.7566 21.4043 13.0002 20.9999 13.0003H19.9999V19.0003C19.9999 19.7958 19.6836 20.5588 19.121 21.1213C18.5584 21.6839 17.7955 22.0002 16.9999 22.0003H6.99995C6.20436 22.0003 5.44145 21.6839 4.87885 21.1213C4.3163 20.5588 4.00001 19.7958 3.99995 19.0003V13.0003H2.99995C2.59561 13.0003 2.23098 12.7565 2.07612 12.3831C1.92135 12.0094 2.007 11.5792 2.29291 11.2932L11.2929 2.29322L11.3691 2.22486ZM5.34955 11.0637C5.72926 11.2056 5.99995 11.5711 5.99995 12.0003V19.0003C6.00001 19.2654 6.10543 19.5198 6.29291 19.7073C6.48044 19.8947 6.73479 20.0003 6.99995 20.0003H16.9999C17.2651 20.0002 17.5195 19.8948 17.707 19.7073C17.8945 19.5198 17.9999 19.2654 17.9999 19.0003V12.0003C17.9999 11.5714 18.2701 11.2058 18.6494 11.0637L11.9999 4.41432L5.34955 11.0637Z" fill="#949494"/>
</svg>
