<svg width="24" height="24" viewBox="0 0 24 24" fill="none" xmlns="http://www.w3.org/2000/svg">
<path d="M9 13C9.53043 13 10.039 13.2109 10.4141 13.5859C10.7891 13.961 11 14.4696 11 15V19C11 19.5304 10.7891 20.039 10.4141 20.4141C10.039 20.7891 9.53043 21 9 21H5C4.46957 21 3.96101 20.7891 3.58594 20.4141C3.21086 20.039 3 19.5304 3 19V15C3 14.4696 3.21086 13.961 3.58594 13.5859C3.96101 13.2109 4.46957 13 5 13H9Z" fill="#1F1F1F"/>
<path d="M17 13C17.7825 13 18.5478 13.2295 19.2012 13.6602C19.8545 14.0908 20.3673 14.7038 20.6758 15.4229C20.9843 16.1421 21.0758 16.9367 20.9375 17.707C20.7992 18.4772 20.4377 19.1899 19.8984 19.7568C19.3591 20.3239 18.6648 20.7199 17.9023 20.8965C17.1401 21.073 16.343 21.0221 15.6094 20.75C14.8756 20.4778 14.2373 19.9963 13.7744 19.3652C13.3118 18.7343 13.044 17.9816 13.0049 17.2002L13 17L13.0049 16.7998C13.0562 15.7749 13.4996 14.8088 14.2432 14.1016C14.9867 13.3943 15.9738 13 17 13Z" fill="#1F1F1F"/>
<path d="M12 2.00098C12.1762 2.00098 12.3495 2.04734 12.502 2.13574C12.6543 2.22414 12.7807 2.35105 12.8682 2.50391L16.8682 9.50391C16.9549 9.65583 17.0005 9.82797 17 10.0029C16.9994 10.178 16.9521 10.3505 16.8643 10.502C16.7764 10.6532 16.6506 10.7788 16.499 10.8662C16.3473 10.9536 16.1751 10.9999 16 11H8C7.82488 10.9999 7.65271 10.9536 7.50098 10.8662C7.34941 10.7788 7.22358 10.6532 7.13574 10.502C7.04786 10.3505 7.00059 10.178 7 10.0029C6.99949 9.82797 7.04505 9.65583 7.13184 9.50391L11.1318 2.50391C11.2193 2.35105 11.3457 2.22414 11.498 2.13574C11.6505 2.04734 11.8238 2.00098 12 2.00098Z" fill="#1F1F1F"/>
</svg>
