<svg width="24" height="24" viewBox="0 0 24 24" fill="none" xmlns="http://www.w3.org/2000/svg">
<path d="M14 12C14.5523 12 15 12.4477 15 13C15 13.5523 14.5523 14 14 14H8C7.44772 14 7 13.5523 7 13C7 12.4477 7.44772 12 8 12H14Z" fill="#949494"/>
<path d="M16 8C16.5523 8 17 8.44772 17 9C17 9.55228 16.5523 10 16 10H8C7.44772 10 7 9.55228 7 9C7 8.44772 7.44772 8 8 8H16Z" fill="#949494"/>
<path fill-rule="evenodd" clip-rule="evenodd" d="M18 3C19.0609 3 20.078 3.42173 20.8281 4.17188C21.5783 4.92202 22 5.93913 22 7V15C22 16.0609 21.5783 17.078 20.8281 17.8281C20.078 18.5783 19.0609 19 18 19H13.2773L8.51465 21.8574C8.20572 22.0428 7.82034 22.0476 7.50684 21.8701C7.19355 21.6926 7 21.3601 7 21V19H6C4.93913 19 3.92202 18.5783 3.17188 17.8281C2.42173 17.078 2 16.0609 2 15V7C2 5.93913 2.42173 4.92202 3.17188 4.17188C3.92202 3.42173 4.93913 3 6 3H18ZM6 5C5.46957 5 4.96101 5.21086 4.58594 5.58594C4.21086 5.96101 4 6.46957 4 7V15C4 15.5304 4.21087 16.039 4.58594 16.4141C4.96101 16.7891 5.46957 17 6 17H8C8.55228 17 9 17.4477 9 18V19.2334L12.4854 17.1426L12.6064 17.0811C12.7304 17.028 12.8642 17 13 17H18C18.5304 17 19.039 16.7891 19.4141 16.4141C19.7891 16.039 20 15.5304 20 15V7C20 6.46957 19.7891 5.96101 19.4141 5.58594C19.039 5.21086 18.5304 5 18 5H6Z" fill="#949494"/>
</svg>
