<svg preserveAspectRatio="none" width="100%" height="100%" overflow="visible" style="display: block;" viewBox="0 0 38 38" fill="none" xmlns="http://www.w3.org/2000/svg">
<g id="tabler:circle-check-filled">
<path id="Vector" d="M26.9167 5.28833C29.3048 6.66719 31.2913 8.64583 32.6797 11.0284C34.0681 13.411 34.8102 16.1148 34.8324 18.8723C34.8547 21.6298 34.1564 24.3453 32.8067 26.7499C31.457 29.1546 29.5026 31.1651 27.1371 32.5823C24.7716 33.9996 22.077 34.7745 19.32 34.8303C16.563 34.8861 13.8392 34.2209 11.4183 32.9005C8.99739 31.5801 6.9633 29.6503 5.51739 27.3022C4.07148 24.9541 3.2639 22.2691 3.17458 19.513L3.16667 19L3.17458 18.487C3.26326 15.7526 4.05895 13.0878 5.4841 10.7524C6.90924 8.41704 8.9152 6.4908 11.3064 5.16148C13.6976 3.83216 16.3925 3.14513 19.1283 3.16736C21.864 3.18959 24.5474 3.92033 26.9167 5.28833ZM24.8694 14.7139C24.5968 14.4413 24.234 14.2775 23.8492 14.2533C23.4645 14.2291 23.0841 14.3462 22.7794 14.5825L22.6306 14.7139L17.4167 19.9263L15.3694 17.8806L15.2206 17.7492C14.9159 17.513 14.5356 17.3961 14.1509 17.4204C13.7662 17.4447 13.4036 17.6084 13.131 17.881C12.8584 18.1536 12.6947 18.5162 12.6704 18.9009C12.6461 19.2856 12.763 19.6659 12.9992 19.9706L13.1306 20.1194L16.2973 23.2861L16.4461 23.4175C16.7238 23.6329 17.0652 23.7499 17.4167 23.7499C17.7681 23.7499 18.1096 23.6329 18.3873 23.4175L18.5361 23.2861L24.8694 16.9527L25.0008 16.8039C25.2371 16.4993 25.3542 16.1189 25.33 15.7341C25.3058 15.3493 25.142 14.9866 24.8694 14.7139Z" fill="var(--fill-0, #1F1F1F)"/>
</g>
</svg>
