<svg width="172" height="201" viewBox="0 0 172 201" fill="none" xmlns="http://www.w3.org/2000/svg">
<path opacity="0.2" fill-rule="evenodd" clip-rule="evenodd" d="M53.9679 -63.7959C78.4519 -65.6821 102.848 -54.2846 121.509 -38.2823C139.006 -23.2778 144.663 0.194489 153.463 21.5254C161.927 42.0438 172.37 61.8885 171.99 84.089C171.579 108.112 164.675 131.68 151.239 151.575C136.726 173.065 118.894 198.164 93.1443 200.835C67.1631 203.531 50.346 172.378 25.3952 164.631C1.03067 157.066 -30.5822 174.185 -49.1505 156.654C-67.4224 139.403 -61.0254 108.727 -60.4625 83.5713C-59.9757 61.8179 -55.4628 40.8939 -46.1204 21.2538C-36.9009 1.87227 -23.5549 -14.4816 -7.21595 -28.3656C11.1221 -43.9484 29.9992 -61.9494 53.9679 -63.7959Z" fill="#FF9179"/>
</svg>
