<svg width="121" height="121" viewBox="0 0 121 121" fill="none" xmlns="http://www.w3.org/2000/svg">
<path opacity="0.8" fill-rule="evenodd" clip-rule="evenodd" d="M61.3858 0.248958C73.4451 -0.721786 85.875 1.0487 96.2429 7.28792C106.771 13.6235 115.238 23.4954 119.297 35.0986C123.188 46.2233 119.371 58.0051 118.083 69.7209C116.744 81.8852 119.157 95.482 111.596 105.1C103.967 114.804 90.672 117.782 78.5386 120.02C67.2845 122.097 55.9567 120.711 45.006 117.386C34.1343 114.085 23.0532 109.836 15.9019 101.002C8.84938 92.2901 8.58956 80.4605 6.24038 69.4977C3.70528 57.6673 -3.06046 45.4061 1.59562 34.2398C6.26623 23.0387 19.4096 18.6192 29.9555 12.6239C39.9469 6.9437 49.9315 1.171 61.3858 0.248958Z" fill="#D9D5BF"/>
</svg>
