<svg width="512" height="512" viewBox="0 0 512 512" fill="none" xmlns="http://www.w3.org/2000/svg">
  <rect width="512" height="512" rx="112" fill="#FF7658"/>
  <path d="M136 265C136 192.65 188.978 140 260.025 140C312.547 140 356.3 168.698 375.875 213.525L324.578 236.55C312.935 209.343 290.771 195.687 260.025 195.687C221.073 195.687 194.526 223.5 194.526 265C194.526 306.5 221.073 334.313 260.025 334.313C292.308 334.313 315.702 319.428 326.834 289.35H256.949V239.011H382V270.533C382 340.833 331.523 390 260.025 390C188.978 390 136 337.35 136 265Z" fill="white"/>
</svg>
