<svg width="512" height="512" viewBox="0 0 512 512" fill="none" xmlns="http://www.w3.org/2000/svg">
  <rect width="512" height="512" fill="#FF7658"/>
  <circle cx="256" cy="256" r="184" fill="white"/>
  <path d="M142 265C142 194.701 193.138 144 261.158 144C311.642 144 353.923 171.281 372.696 213.82L321.72 236.294C310.536 211.023 289.387 198.18 261.158 198.18C223.445 198.18 197.663 224.731 197.663 265C197.663 305.269 223.445 331.82 261.158 331.82C291.49 331.82 313.688 317.461 323.578 288.91H256.353V239.871H382V270.432C382 338.865 333.62 386 261.158 386C193.138 386 142 335.299 142 265Z" fill="#FF7658"/>
</svg>
