<svg width="20" height="20" viewBox="0 0 20 20" fill="none" xmlns="http://www.w3.org/2000/svg">
<path d="M11.6667 1.6665C12.7718 1.6665 13.8313 2.10581 14.6127 2.88721C15.3941 3.66861 15.8334 4.7281 15.8334 5.83317V17.4998C15.8334 17.6507 15.7921 17.7985 15.7146 17.9279C15.6371 18.0573 15.5262 18.1635 15.3931 18.2347C15.2601 18.3059 15.1101 18.3397 14.9594 18.3324C14.8089 18.325 14.6632 18.2768 14.5378 18.1932L10.0001 15.1683L5.46313 18.1932C5.34426 18.2727 5.20696 18.3205 5.06437 18.3315C4.92172 18.3426 4.77828 18.3169 4.64852 18.2567C4.51889 18.1964 4.40732 18.1033 4.32381 17.9873C4.24029 17.8712 4.18755 17.7355 4.17163 17.5934L4.16675 17.4998V5.83317C4.16675 4.7281 4.60605 3.66861 5.38745 2.88721C6.16885 2.10581 7.22835 1.6665 8.33342 1.6665H11.6667Z" fill="#C8C8C8"/>
</svg>
