<svg width="390" height="751" viewBox="0 0 390 751" fill="none" xmlns="http://www.w3.org/2000/svg">
<mask id="mask0_1930_41316" style="mask-type:alpha" maskUnits="userSpaceOnUse" x="0" y="52" width="390" height="699">
<path d="M390 52H0V751H390V52Z" fill="url(#paint0_linear_1930_41316)"/>
</mask>
<g mask="url(#mask0_1930_41316)">
<path fill-rule="evenodd" clip-rule="evenodd" d="M336.902 233.302C384.712 228.903 421.424 273.38 452.003 310.361C479.176 343.222 493.167 382.809 495.709 425.358C498.453 471.3 499.89 523.128 466.614 554.953C433.669 586.464 381.818 585.154 336.902 577.245C299.526 570.664 275.748 539.741 246.06 516.119C209.431 486.973 147.233 472.127 146.017 425.358C144.803 378.644 208.259 362.916 241.216 329.758C274.405 296.365 289.999 237.618 336.902 233.302Z" fill="#FFF7EF"/>
<path opacity="0.2" fill-rule="evenodd" clip-rule="evenodd" d="M-27.0321 90.2041C-2.54803 88.3179 21.8483 99.7154 40.5089 115.718C58.006 130.722 63.6635 154.194 72.463 175.525C80.9273 196.044 91.3696 215.888 90.9899 238.089C90.5791 262.112 83.6754 285.68 70.239 305.575C55.7256 327.065 37.8938 352.164 12.1443 354.835C-13.8369 357.531 -30.654 326.378 -55.6048 318.631C-79.9693 311.066 -111.582 328.185 -130.15 310.654C-148.422 293.403 -142.025 262.727 -141.462 237.571C-140.976 215.818 -136.463 194.894 -127.12 175.254C-117.901 155.872 -104.555 139.518 -88.216 125.634C-69.8779 110.052 -51.0007 92.0506 -27.0321 90.2041Z" fill="#FF9179"/>
<path opacity="0.8" fill-rule="evenodd" clip-rule="evenodd" d="M-102.352 565.724C-100.995 551.047 -84.6526 543.122 -73.8088 533.144C-63.8496 523.98 -54.815 512.679 -41.5915 509.816C-28.5461 506.992 -16.1747 514.747 -3.19508 517.855C11.1793 521.298 27.7629 519.207 38.7785 529.066C50.2234 539.309 57.0822 555.491 55.9796 570.817C54.9188 585.564 40.6388 595.043 33.1166 607.771C26.2943 619.315 24.5009 634.028 13.8273 642.14C2.70432 650.593 -12.1979 655.443 -25.8721 652.601C-39.0527 649.862 -46.4962 636.551 -56.4883 627.526C-65.0419 619.801 -73.4385 612.692 -80.308 603.435C-89.1638 591.501 -103.72 580.525 -102.352 565.724Z" fill="#FFBD81"/>
</g>
<defs>
<linearGradient id="paint0_linear_1930_41316" x1="195" y1="52" x2="195" y2="751" gradientUnits="userSpaceOnUse">
<stop stop-color="white" stop-opacity="0.8"/>
<stop offset="1" stop-color="white" stop-opacity="0"/>
</linearGradient>
</defs>
</svg>
