<svg width="16" height="16" viewBox="0 0 16 16" fill="none" xmlns="http://www.w3.org/2000/svg">
<path d="M8.00011 2.6665C10.8601 2.6665 13.2421 4.28584 15.1101 7.43584L15.2568 7.6885L15.2868 7.75517L15.3068 7.8105L15.3161 7.84717L15.3254 7.90184L15.3328 7.9685V8.04184L15.3234 8.11584C15.3191 8.14059 15.3133 8.16507 15.3061 8.18917L15.2801 8.26117L15.2561 8.31117L15.2454 8.33117C13.4028 11.5552 11.0454 13.2512 8.20878 13.3305L8.00011 13.3332C5.06944 13.3332 2.64211 11.6338 0.754777 8.3305C0.69725 8.22979 0.666992 8.11582 0.666992 7.99984C0.666992 7.88386 0.69725 7.76988 0.754777 7.66917C2.64211 4.36584 5.06944 2.6665 8.00011 2.6665ZM8.00011 5.99984C7.46968 5.99984 6.96097 6.21055 6.5859 6.58562C6.21082 6.9607 6.00011 7.4694 6.00011 7.99984C6.00011 8.53027 6.21082 9.03898 6.5859 9.41405C6.96097 9.78912 7.46968 9.99984 8.00011 9.99984C8.53054 9.99984 9.03925 9.78912 9.41432 9.41405C9.7894 9.03898 10.0001 8.53027 10.0001 7.99984C10.0001 7.4694 9.7894 6.9607 9.41432 6.58562C9.03925 6.21055 8.53054 5.99984 8.00011 5.99984Z" fill="#C8C8C8"/>
</svg>
