<svg width="17" height="17" viewBox="0 0 17 17" fill="none" xmlns="http://www.w3.org/2000/svg">
<path d="M0 4C0 1.79086 1.79086 0 4 0H13C15.2091 0 17 1.79086 17 4V13C17 15.2091 15.2091 17 13 17H4C1.79086 17 0 15.2091 0 13V4Z" fill="black" fill-opacity="0.25"/>
<path d="M14.1667 12.0418C14.1667 11.854 14.092 11.6739 13.9592 11.541C13.8263 11.4082 13.6462 11.3335 13.4584 11.3335C13.2705 11.3335 13.0904 11.4082 12.9575 11.541C12.8247 11.6739 12.75 11.854 12.75 12.0418C12.75 12.2297 12.8247 12.4098 12.9575 12.5426C13.0904 12.6755 13.2705 12.7502 13.4584 12.7502C13.6462 12.7502 13.8263 12.6755 13.9592 12.5426C14.092 12.4098 14.1667 12.2297 14.1667 12.0418ZM14.1667 7.79183V4.25016H2.83335V12.7502H9.20835C9.59956 12.7502 9.91669 13.0673 9.91669 13.4585C9.91669 13.8497 9.59956 14.1668 9.20835 14.1668H2.83335C2.45763 14.1668 2.0974 14.0175 1.83173 13.7518C1.56605 13.4861 1.41669 13.1259 1.41669 12.7502V4.25016C1.41669 3.87444 1.56605 3.51421 1.83173 3.24854C2.0974 2.98286 2.45763 2.8335 2.83335 2.8335H14.1667C14.5424 2.8335 14.9026 2.98286 15.1683 3.24854C15.434 3.51421 15.5834 3.87444 15.5834 4.25016V7.79183C15.5834 8.18303 15.2662 8.50016 14.875 8.50016C14.4838 8.50016 14.1667 8.18303 14.1667 7.79183ZM15.5834 12.0418C15.5834 12.6054 15.3593 13.1458 14.9608 13.5443C14.5623 13.9428 14.0219 14.1668 13.4584 14.1668C12.8948 14.1668 12.3544 13.9428 11.9559 13.5443C11.5574 13.1458 11.3334 12.6054 11.3334 12.0418C11.3334 11.4782 11.5574 10.9379 11.9559 10.5394C12.3544 10.1409 12.8948 9.91683 13.4584 9.91683C14.0219 9.91683 14.5623 10.1409 14.9608 10.5394C15.3593 10.9379 15.5834 11.4782 15.5834 12.0418Z" fill="#F5F5F5"/>
<path d="M6.375 9.20866V6.37533C6.375 5.98412 6.69213 5.66699 7.08333 5.66699H9.91667C10.3079 5.66699 10.625 5.98412 10.625 6.37533C10.625 6.76653 10.3079 7.08366 9.91667 7.08366H8.79329L10.4175 8.70784C10.6941 8.98447 10.6941 9.43285 10.4175 9.70947C10.1409 9.98609 9.69247 9.98609 9.41585 9.70947L7.79167 8.08529V9.20866C7.79167 9.59986 7.47453 9.91699 7.08333 9.91699C6.69213 9.91699 6.375 9.59986 6.375 9.20866Z" fill="#F5F5F5"/>
</svg>
