<svg width="32" height="32" viewBox="0 0 32 32" fill="none" xmlns="http://www.w3.org/2000/svg">
<path d="M22.6667 4.45352C24.6777 5.61466 26.3506 7.28088 27.5198 9.28725C28.6889 11.2936 29.3138 13.5705 29.3326 15.8926C29.3513 18.2147 28.7633 20.5015 27.6267 22.5264C26.4901 24.5514 24.8443 26.2445 22.8523 27.4379C20.8603 28.6314 18.5912 29.2839 16.2695 29.3309C13.9478 29.3779 11.6541 28.8177 9.61541 27.7058C7.57675 26.5939 5.86383 24.9689 4.64623 22.9915C3.42862 21.0142 2.74855 18.7531 2.67334 16.4322L2.66667 16.0002L2.67334 15.5682C2.74801 13.2655 3.41807 11.0215 4.61819 9.05484C5.81831 7.08821 7.50754 5.46612 9.52119 4.34669C11.5348 3.22727 13.8042 2.64871 16.108 2.66743C18.4118 2.68615 20.6715 3.30151 22.6667 4.45352ZM20.9427 12.3908C20.7131 12.1613 20.4076 12.0234 20.0836 12.003C19.7595 11.9826 19.4392 12.0812 19.1827 12.2802L19.0573 12.3908L14.6667 16.7802L12.9427 15.0575L12.8173 14.9468C12.5608 14.748 12.2405 14.6495 11.9165 14.67C11.5926 14.6904 11.2872 14.8283 11.0577 15.0579C10.8282 15.2874 10.6902 15.5928 10.6698 15.9167C10.6494 16.2407 10.7478 16.561 10.9467 16.8175L11.0573 16.9428L13.724 19.6095L13.8493 19.7202C14.0832 19.9016 14.3707 20.0001 14.6667 20.0001C14.9626 20.0001 15.2502 19.9016 15.484 19.7202L15.6093 19.6095L20.9427 14.2762L21.0533 14.1508C21.2523 13.8943 21.3509 13.574 21.3305 13.2499C21.3101 12.9259 21.1722 12.6204 20.9427 12.3908Z" fill="#1F1F1F"/>
</svg>
