<svg width="57" height="145" viewBox="0 0 57 145" fill="none" xmlns="http://www.w3.org/2000/svg">
<path opacity="0.8" fill-rule="evenodd" clip-rule="evenodd" d="M-102.352 56.5156C-100.995 41.8394 -84.6526 33.9135 -73.8088 23.9358C-63.8496 14.7721 -54.815 3.47139 -41.5915 0.608406C-28.5461 -2.21604 -16.1747 5.53871 -3.19511 8.64742C11.1793 12.0902 27.7629 9.99868 38.7785 19.8577C50.2234 30.101 57.0822 46.2832 55.9796 61.6092C54.9188 76.3565 40.6388 85.8353 33.1166 98.5631C26.2943 110.107 24.5009 124.82 13.8273 132.932C2.70428 141.385 -12.1979 146.235 -25.8721 143.393C-39.0527 140.654 -46.4962 127.343 -56.4883 118.318C-65.0419 110.593 -73.4385 103.484 -80.308 94.2269C-89.1638 82.2933 -103.72 71.3174 -102.352 56.5156Z" fill="#FFBD81"/>
</svg>
