<svg width="20" height="20" viewBox="0 0 20 20" fill="none" xmlns="http://www.w3.org/2000/svg">
<path d="M12.9027 5.18829C13.1537 4.93724 13.5607 4.93724 13.8117 5.18829C14.0628 5.43934 14.0628 5.84629 13.8117 6.09734L10.409 9.5L13.8117 12.9027C14.0628 13.1537 14.0628 13.5607 13.8117 13.8117C13.5607 14.0628 13.1537 14.0628 12.9027 13.8117L9.5 10.409L6.09734 13.8117C5.84629 14.0628 5.43934 14.0628 5.18829 13.8117C4.93724 13.5607 4.93724 13.1537 5.18829 12.9027L8.59095 9.5L5.18829 6.09734C4.93724 5.84629 4.93724 5.43934 5.18829 5.18829C5.43934 4.93724 5.84629 4.93724 6.09734 5.18829L9.5 8.59095L12.9027 5.18829Z" fill="#616161"/>
</svg>
