<svg preserveAspectRatio="none" overflow="visible" style="display: block;" width="14.9999" height="16.6667" viewBox="0 0 14.9999 16.6667" fill="none" xmlns="http://www.w3.org/2000/svg">
<path id="Vector" fill-rule="evenodd" clip-rule="evenodd" d="M7.49993 0C8.16294 2.2746e-05 8.79869 0.263601 9.26751 0.732422C9.60708 1.07201 9.8369 1.49957 9.9389 1.96126C10.8534 2.47512 11.6357 3.19906 12.22 4.07552C12.8911 5.08215 13.2757 6.25245 13.3325 7.46094C13.3331 7.47395 13.3333 7.48698 13.3333 7.5V9.93815C13.3845 10.3128 13.5188 10.6714 13.7288 10.9863C13.9459 11.312 14.237 11.582 14.5776 11.7749C14.9067 11.9615 15.0686 12.3466 14.9723 12.7124C14.8758 13.0783 14.545 13.3333 14.1666 13.3333H10.8333C10.8333 14.2174 10.4818 15.065 9.8567 15.6901C9.2316 16.3152 8.38395 16.6666 7.49993 16.6667C6.6159 16.6667 5.76828 16.3152 5.14316 15.6901C4.51804 15.065 4.1666 14.2174 4.1666 13.3333H0.833265C0.454848 13.3333 0.124075 13.0783 0.027601 12.7124C-0.0687992 12.3465 0.0931529 11.9615 0.422295 11.7749C0.762854 11.582 1.05399 11.312 1.27109 10.9863C1.48102 10.6714 1.61535 10.3128 1.6666 9.93815V7.5C1.6666 7.48698 1.6668 7.47395 1.66741 7.46094C1.72414 6.25244 2.10879 5.08216 2.77988 4.07552C3.36407 3.19925 4.14591 2.4751 5.06015 1.96126C5.16213 1.49949 5.39272 1.07205 5.73235 0.732422C6.20119 0.263608 6.83691 0 7.49993 0ZM5.83326 13.3333C5.83326 13.7754 6.00899 14.1992 6.32155 14.5117C6.6341 14.8243 7.05792 15 7.49993 15C7.94193 15 8.36578 14.8243 8.67832 14.5117C8.99085 14.1992 9.1666 13.7753 9.1666 13.3333H5.83326ZM7.49993 1.66667C7.27894 1.66667 7.06701 1.75455 6.91074 1.91081C6.75446 2.06709 6.6666 2.27899 6.6666 2.5C6.6666 2.82218 6.48093 3.1158 6.18971 3.25358C5.36943 3.64145 4.66992 4.24504 4.1666 5C3.66524 5.75203 3.37755 6.62587 3.33326 7.52848V10C3.33326 10.0334 3.33158 10.0669 3.32757 10.1001C3.26068 10.6527 3.08282 11.185 2.80755 11.6667H12.1923C11.917 11.185 11.7392 10.6527 11.6723 10.1001C11.6683 10.0669 11.6666 10.0334 11.6666 10V7.52848C11.6223 6.62588 11.3346 5.75203 10.8333 5C10.33 4.24504 9.63042 3.64146 8.81015 3.25358C8.51889 3.11581 8.33326 2.82221 8.33326 2.5C8.33326 2.27901 8.24538 2.06708 8.08912 1.91081C7.93286 1.75455 7.72091 1.66669 7.49993 1.66667Z" fill="#1F1F1F"/>
</svg>
