<svg width="157" height="180" viewBox="0 0 157 180" fill="none" xmlns="http://www.w3.org/2000/svg">
<path opacity="0.2" fill-rule="evenodd" clip-rule="evenodd" d="M156.034 -15.1392C173.055 -6.79821 184.811 10.342 190.949 28.2964C196.704 45.1314 191.268 62.9575 188.76 80.5908C186.347 97.5526 185.514 114.841 176.561 129.456C166.874 145.27 153.047 158.237 136.314 166.201C118.241 174.804 96.5472 184.506 78.377 176.191C60.0433 167.802 61.0687 140.495 47.5127 125.565C34.2751 110.986 6.54408 109.981 1.06658 91.0464C-4.32347 72.4139 11.9525 54.5214 22.1854 38.0136C31.0343 23.7385 42.2354 11.5928 56.145 2.19365C69.8715 -7.08181 85.1555 -12.7267 101.462 -15.5563C119.763 -18.732 139.371 -23.3046 156.034 -15.1392Z" fill="#FFAD9B"/>
</svg>
