<svg width="96" height="157" viewBox="0 0 96 157" fill="none" xmlns="http://www.w3.org/2000/svg">
<path opacity="0.8" fill-rule="evenodd" clip-rule="evenodd" d="M28.2544 0.0711762C42.9427 -1.14745 53.5924 13.5653 65.3055 22.5066C76.063 30.7184 88.764 37.6478 93.8852 50.171C98.9376 62.5255 93.4549 76.058 92.6532 89.3805C91.7653 104.135 96.7118 120.101 88.921 132.665C80.8265 145.718 66.0853 155.289 50.8015 156.872C36.0947 158.394 24.2746 145.982 10.4317 140.791C-2.12319 136.082 -16.9245 136.878 -26.7705 127.779C-37.031 118.297 -44.4011 104.467 -43.9831 90.5069C-43.5801 77.0507 -31.7683 67.4036 -24.6207 55.993C-18.5021 46.2251 -12.9634 36.7192 -5.04369 28.3432C5.16603 17.5451 13.4403 1.30024 28.2544 0.0711762Z" fill="#FFBD81"/>
</svg>
