<svg width="138" height="167" viewBox="0 0 138 167" fill="none" xmlns="http://www.w3.org/2000/svg">
<path opacity="0.8" fill-rule="evenodd" clip-rule="evenodd" d="M3.4203 30.2113C12.7066 15.7383 34.9974 19.6563 51.3062 14.292C65.9785 9.46601 79.2097 -1.85308 94.4806 0.259824C109.887 2.39145 120.457 15.7426 132.527 25.5298C145.465 36.0198 162.155 43.8708 167.678 59.6105C173.316 75.677 166.067 92.8587 161.966 109.425C157.54 127.306 157.578 149.072 142.807 160.083C128.038 171.093 107.185 165.775 88.9146 163.881C73.8433 162.318 59.79 157.521 46.5929 150.106C33.9794 143.019 21.5182 134.823 14.5786 122.114C7.76861 109.642 10.4115 94.8297 8.69611 80.7011C6.61456 63.5569 -5.92389 44.7745 3.4203 30.2113Z" fill="#FDB7C1"/>
</svg>
