<svg width="24" height="24" viewBox="0 0 24 24" fill="none" xmlns="http://www.w3.org/2000/svg">
<path d="M14 2C15.3261 2 16.5975 2.52716 17.5352 3.46484C18.4728 4.40253 19 5.67392 19 7V21C19 21.181 18.9504 21.3584 18.8574 21.5137C18.7644 21.669 18.6313 21.7964 18.4717 21.8818C18.3121 21.9672 18.132 22.0078 17.9512 21.999C17.7705 21.9902 17.5958 21.9324 17.4453 21.832L12 18.2021L6.55566 21.832C6.41302 21.9274 6.24825 21.9848 6.07715 21.998C5.90597 22.0113 5.73384 21.9805 5.57812 21.9082C5.42257 21.8359 5.28869 21.7242 5.18848 21.585C5.08826 21.4456 5.02497 21.2829 5.00586 21.1123L5 21V7C5 5.67392 5.52716 4.40253 6.46484 3.46484C7.40253 2.52716 8.67392 2 10 2H14Z" fill="#1F1F1F"/>
</svg>
