<svg width="24" height="24" viewBox="0 0 24 24" fill="none" xmlns="http://www.w3.org/2000/svg">
<path d="M20 17.6252C20 17.1058 19.7891 16.6078 19.4141 16.2406C19.039 15.8733 18.5304 15.6668 18 15.6668C17.4696 15.6668 16.961 15.8733 16.5859 16.2406C16.4355 16.3879 16.3123 16.5565 16.2178 16.7387C16.2087 16.7594 16.2001 16.7806 16.1895 16.8009C16.1873 16.805 16.1838 16.8083 16.1816 16.8124C16.0637 17.0653 16 17.3418 16 17.6252C16 18.1445 16.2109 18.6425 16.5859 19.0098C16.961 19.377 17.4696 19.5835 18 19.5835C18.5304 19.5835 19.039 19.377 19.4141 19.0098C19.7891 18.6425 20 18.1445 20 17.6252ZM8 11.7502C8 11.4667 7.93541 11.1904 7.81738 10.9374C7.81526 10.9335 7.81262 10.9298 7.81055 10.9259C7.7998 10.9055 7.7904 10.8845 7.78125 10.8637C7.68672 10.6816 7.56439 10.5128 7.41406 10.3656C7.03899 9.9983 6.53043 9.79183 6 9.79183C5.46957 9.79183 4.96101 9.9983 4.58594 10.3656C4.21087 10.7328 4 11.2308 4 11.7502C4 12.2695 4.21087 12.7675 4.58594 13.1348C4.96101 13.502 5.46957 13.7085 6 13.7085C6.53043 13.7085 7.03899 13.502 7.41406 13.1348C7.56459 12.9874 7.68667 12.8181 7.78125 12.6356C7.7903 12.6151 7.79994 12.5946 7.81055 12.5744C7.81275 12.5702 7.81513 12.5661 7.81738 12.562C7.93517 12.3092 8 12.0333 8 11.7502ZM20 5.87516C20 5.35578 19.7891 4.85782 19.4141 4.49056C19.039 4.1233 18.5304 3.91683 18 3.91683C17.4696 3.91683 16.961 4.1233 16.5859 4.49056C16.2109 4.85782 16 5.35578 16 5.87516C16 6.1582 16.064 6.43426 16.1816 6.68699C16.184 6.69127 16.1872 6.6951 16.1895 6.69942C16.2 6.71947 16.2088 6.74022 16.2178 6.76062C16.3124 6.94321 16.4353 7.11226 16.5859 7.25977C16.961 7.62702 17.4696 7.8335 18 7.8335C18.5304 7.8335 19.039 7.62702 19.4141 7.25977C19.7891 6.89251 20 6.39455 20 5.87516ZM22 5.87516C22 6.91393 21.5783 7.90985 20.8281 8.64437C20.078 9.37889 19.0609 9.79183 18 9.79183C16.9391 9.79183 15.922 9.37889 15.1719 8.64437C15.0981 8.57213 15.0283 8.49676 14.9609 8.41966L9.91602 10.9651C9.96968 11.2217 10 11.4843 10 11.7502C10 12.0157 9.96955 12.2779 9.91602 12.5343L14.9609 15.0797C15.0281 15.0028 15.0983 14.928 15.1719 14.856C15.922 14.1214 16.9391 13.7085 18 13.7085C19.0609 13.7085 20.078 14.1214 20.8281 14.856C21.5783 15.5905 22 16.5864 22 17.6252C22 18.6639 21.5783 19.6598 20.8281 20.3944C20.078 21.1289 19.0609 21.5418 18 21.5418C16.9391 21.5418 15.922 21.1289 15.1719 20.3944C14.4217 19.6598 14 18.6639 14 17.6252C14 17.3594 14.0294 17.0967 14.083 16.8401L9.03809 14.2947C8.97088 14.3716 8.90175 14.4473 8.82812 14.5194C8.07798 15.2539 7.06087 15.6668 6 15.6668C4.93913 15.6668 3.92202 15.2539 3.17188 14.5194C2.42173 13.7849 2 12.7889 2 11.7502C2 10.7114 2.42173 9.71547 3.17188 8.98096C3.92202 8.24644 4.93913 7.8335 6 7.8335C7.06087 7.8335 8.07798 8.24644 8.82812 8.98096C8.90157 9.05288 8.97102 9.12798 9.03809 9.20471L14.083 6.65926C14.0295 6.40299 14 6.14066 14 5.87516C14 4.8364 14.4217 3.84047 15.1719 3.10596C15.922 2.37144 16.9391 1.9585 18 1.9585C19.0609 1.9585 20.078 2.37144 20.8281 3.10596C21.5783 3.84047 22 4.8364 22 5.87516Z" fill="#1F1F1F"/>
</svg>
