<svg width="20" height="20" viewBox="0 0 20 20" fill="none" xmlns="http://www.w3.org/2000/svg">
<path d="M10 4C10.552 4.00018 10.9998 4.44797 11 5C10.9998 5.55203 10.552 5.99982 10 6H5C4.82331 6.00009 4.65327 6.07037 4.52832 6.19531C4.40355 6.32017 4.33318 6.48952 4.33301 6.66602V15C4.33309 15.1765 4.40368 15.3458 4.52832 15.4707C4.65327 15.5957 4.82331 15.6659 5 15.666H13.333C13.5098 15.666 13.6797 15.5957 13.8047 15.4707C13.9294 15.3458 13.9999 15.1765 14 15V10C14.0002 9.44797 14.448 9.00018 15 9C15.552 9.00018 15.9998 9.44797 16 10V15C15.9999 15.7071 15.7188 16.3857 15.2188 16.8857C14.7187 17.3857 14.0402 17.666 13.333 17.666H5C4.29303 17.6659 3.61425 17.3856 3.11426 16.8857C2.61444 16.3858 2.33309 15.707 2.33301 15V6.66602C2.33318 5.95901 2.61431 5.28022 3.11426 4.78027C3.61425 4.28046 4.29303 4.00009 5 4H10ZM16.666 2.33301C17.2182 2.33301 17.6658 2.78087 17.666 3.33301V7.5C17.6658 8.05213 17.2182 8.5 16.666 8.5C16.1141 8.49965 15.6662 8.05192 15.666 7.5V5.74707L9.87305 11.54C9.48251 11.9304 8.84945 11.9305 8.45898 11.54C8.069 11.1495 8.06879 10.5164 8.45898 10.126L14.252 4.33301H12.5C11.9479 4.33283 11.5 3.88518 11.5 3.33301C11.5002 2.78098 11.948 2.33318 12.5 2.33301H16.666Z" fill="#AC4A35"/>
</svg>
