<svg width="20" height="20" viewBox="0 0 20 20" fill="none" xmlns="http://www.w3.org/2000/svg">
<path fill-rule="evenodd" clip-rule="evenodd" d="M10.0003 6.66672C10.8843 6.66673 11.7319 7.01817 12.357 7.64328C12.9821 8.2684 13.3336 9.11601 13.3336 10C13.3336 10.8841 12.9822 11.7317 12.357 12.3568C11.7319 12.9819 10.8843 13.3334 10.0003 13.3334C9.11624 13.3334 8.26862 12.9819 7.6435 12.3568C7.01839 11.7317 6.66695 10.8841 6.66694 10C6.66694 9.11599 7.01838 8.2684 7.6435 7.64328C8.26862 7.01816 9.11622 6.66672 10.0003 6.66672ZM10.0003 8.33338C9.55825 8.33338 9.13445 8.50911 8.82189 8.82166C8.50933 9.13422 8.33361 9.55802 8.33361 10C8.33361 10.4421 8.50933 10.8659 8.82189 11.1784C9.13444 11.491 9.55826 11.6667 10.0003 11.6667C10.4423 11.6667 10.8661 11.491 11.1787 11.1784C11.4912 10.8659 11.6669 10.4421 11.6669 10C11.6669 9.55804 11.4912 9.13422 11.1787 8.82166C10.8661 8.50912 10.4423 8.3334 10.0003 8.33338Z" fill="#1F1F1F"/>
<path fill-rule="evenodd" clip-rule="evenodd" d="M7.85509 3.19097C8.55864 1.09093 11.6621 1.16095 12.2057 3.40093C12.228 3.49323 12.2725 3.57942 12.3343 3.65158C12.396 3.72363 12.4737 3.78046 12.5613 3.81678C12.649 3.8531 12.7442 3.86803 12.8388 3.86073C12.9335 3.85338 13.0255 3.82391 13.1066 3.77446L13.2978 3.66867C15.2804 2.68142 17.4255 4.92542 16.2267 6.89458C16.1774 6.97554 16.1477 7.06703 16.1404 7.16151C16.1331 7.25614 16.1489 7.35132 16.1852 7.43901C16.2214 7.52655 16.2776 7.60437 16.3496 7.66606C16.4216 7.72775 16.5073 7.7722 16.5994 7.79465L16.8094 7.85487C18.9093 8.55845 18.8393 11.6618 16.5994 12.2055C16.5071 12.2278 16.4209 12.2723 16.3487 12.334C16.2767 12.3958 16.2199 12.4734 16.1835 12.5611C16.1472 12.6488 16.1323 12.744 16.1396 12.8386C16.1451 12.9096 16.1629 12.9792 16.1925 13.0437L16.2259 13.1063C17.4636 15.1382 15.1383 17.4638 13.1057 16.2264C13.0248 16.1772 12.9333 16.1475 12.8388 16.1402C12.7442 16.1329 12.649 16.1486 12.5613 16.1849C12.4738 16.2212 12.396 16.2774 12.3343 16.3493C12.288 16.4034 12.2515 16.4653 12.2268 16.5316L12.2057 16.5992C11.6445 18.9114 8.35603 18.9113 7.79487 16.5992C7.7725 16.5069 7.72803 16.4207 7.66629 16.3485C7.60457 16.2765 7.52688 16.2197 7.43924 16.1833C7.35155 16.147 7.25636 16.1321 7.16173 16.1394C7.09069 16.1449 7.02109 16.1627 6.95665 16.1923L6.89399 16.2256C4.86214 17.4634 2.53639 15.1381 3.77387 13.1055L3.80724 13.0429C3.83662 12.9786 3.85463 12.9094 3.86014 12.8386C3.86746 12.744 3.85168 12.6488 3.81538 12.5611C3.77911 12.4735 3.7229 12.3957 3.65099 12.334C3.59696 12.2877 3.53503 12.2513 3.4687 12.2266L3.40115 12.2055C1.08894 11.6443 1.08894 8.35578 3.40115 7.79465C3.49345 7.77227 3.57964 7.72782 3.6518 7.66606C3.72387 7.60434 3.78067 7.52667 3.817 7.43901C3.85333 7.35133 3.86825 7.25614 3.86095 7.16151C3.85544 7.09048 3.83758 7.02086 3.80805 6.95643L3.77469 6.89377C2.5371 4.86229 4.86081 2.53689 6.89318 3.77284C7.24477 3.98656 7.69803 3.79845 7.79487 3.40093L7.85509 3.19097ZM10.5862 3.79399C10.4372 3.17986 9.56335 3.17986 9.41433 3.79399C9.06226 5.24099 7.44853 5.95152 6.15262 5.26779L6.0281 5.19699C5.48742 4.86782 4.86926 5.48645 5.19803 6.02625C5.384 6.33129 5.49506 6.67593 5.52273 7.03211C5.55035 7.38843 5.49351 7.74686 5.35672 8.07703C5.21997 8.40701 5.00712 8.70004 4.73579 8.93234C4.49812 9.13574 4.22105 9.28799 3.9228 9.37912L3.79422 9.41411C3.18008 9.56313 3.18008 10.437 3.79422 10.586C4.14102 10.6704 4.46389 10.8356 4.73497 11.0678C5.00612 11.3001 5.21927 11.5932 5.3559 11.9231C5.49253 12.253 5.54948 12.6111 5.52192 12.9672C5.49434 13.3232 5.38298 13.668 5.19721 13.973C4.86842 14.5136 5.48677 15.131 6.02648 14.8023C6.33147 14.6164 6.67622 14.5053 7.03234 14.4776C7.38865 14.45 7.74709 14.5068 8.07726 14.6436C8.40722 14.7803 8.70027 14.9932 8.93256 15.2645C9.16488 15.536 9.33016 15.8589 9.41433 16.2061L9.45014 16.3143C9.6696 16.8179 10.4465 16.7818 10.5862 16.2061C10.6706 15.8593 10.8358 15.5365 11.068 15.2653C11.3003 14.9942 11.5934 14.7811 11.9233 14.6444C12.2533 14.5078 12.6113 14.4508 12.9674 14.4784C13.3234 14.506 13.6683 14.6173 13.9733 14.8031C14.5138 15.1318 15.1312 14.5135 14.8025 13.9738C14.6168 13.669 14.5055 13.3239 14.4778 12.968C14.4502 12.6117 14.507 12.2532 14.6438 11.9231C14.7806 11.5931 14.9934 11.3001 15.2648 11.0678C15.5362 10.8354 15.8591 10.6702 16.2063 10.586L16.3146 10.5502C16.8181 10.3307 16.782 9.55384 16.2063 9.41411C15.8595 9.32973 15.5367 9.16452 15.2656 8.93234C14.9944 8.70003 14.7813 8.40691 14.6446 8.07703C14.508 7.74707 14.4511 7.389 14.4786 7.03293C14.5062 6.67687 14.6176 6.33206 14.8033 6.02707C15.1321 5.48646 14.5138 4.86913 13.9741 5.1978L13.9733 5.19699C13.6683 5.38281 13.3242 5.49484 12.9682 5.52251C12.6119 5.55014 12.2535 5.49327 11.9233 5.35649C11.5933 5.21976 11.3003 5.00688 11.068 4.73556C10.8646 4.4979 10.7123 4.22083 10.6212 3.92258L10.5862 3.79399Z" fill="#1F1F1F"/>
</svg>
