<svg width="110" height="212" viewBox="0 0 110 212" fill="none" xmlns="http://www.w3.org/2000/svg">
<path opacity="0.2" fill-rule="evenodd" clip-rule="evenodd" d="M15.6752 0.163272C35.2415 -1.34569 54.7377 7.77235 69.6502 20.5741C83.633 32.5778 88.1542 51.3556 95.1862 68.4203C101.95 84.835 110.295 100.711 109.992 118.471C109.664 137.69 104.147 156.544 93.4088 172.46C81.8106 189.652 67.5604 209.731 46.9828 211.868C26.22 214.025 12.7808 189.103 -7.15852 182.905C-26.6293 176.853 -51.8926 190.548 -66.7314 176.524C-81.3333 162.723 -76.2212 138.182 -75.7713 118.057C-75.3823 100.654 -71.7758 83.9151 -64.3099 68.2031C-56.9421 52.6978 -46.2768 39.6147 -33.2196 28.5075C-18.5648 16.0413 -3.4793 1.64047 15.6752 0.163272Z" fill="#FF9179"/>
</svg>
